<mxfile host="app.diagrams.net" modified="2024-03-09T08:55:24.763Z" agent="Mozilla/5.0 (Windows NT 10.0; Win64; x64) AppleWebKit/537.36 (KHTML, like Gecko) Chrome/120.0.0.0 YaBrowser/24.1.0.0 Safari/537.36" etag="wrDWzk6kRTTi3DS9uvjU" version="23.1.2" type="device">
  <diagram id="C5RBs43oDa-KdzZeNtuy" name="Page-1">
    <mxGraphModel dx="1386" dy="831" grid="1" gridSize="10" guides="1" tooltips="1" connect="1" arrows="1" fold="1" page="1" pageScale="1" pageWidth="827" pageHeight="1169" math="0" shadow="0">
      <root>
        <mxCell id="WIyWlLk6GJQsqaUBKTNV-0" />
        <mxCell id="WIyWlLk6GJQsqaUBKTNV-1" parent="WIyWlLk6GJQsqaUBKTNV-0" />
        <mxCell id="TSAxxfIrnvSi1KXJe5UJ-1" style="edgeStyle=orthogonalEdgeStyle;rounded=0;orthogonalLoop=1;jettySize=auto;html=1;" parent="WIyWlLk6GJQsqaUBKTNV-1" source="TSAxxfIrnvSi1KXJe5UJ-2" target="TSAxxfIrnvSi1KXJe5UJ-4" edge="1">
          <mxGeometry relative="1" as="geometry" />
        </mxCell>
        <mxCell id="TSAxxfIrnvSi1KXJe5UJ-2" value="&lt;b&gt;Start&lt;/b&gt;" style="rounded=1;whiteSpace=wrap;html=1;" parent="WIyWlLk6GJQsqaUBKTNV-1" vertex="1">
          <mxGeometry x="367.5" y="50" width="100" height="60" as="geometry" />
        </mxCell>
        <mxCell id="TSAxxfIrnvSi1KXJe5UJ-3" value="" style="edgeStyle=orthogonalEdgeStyle;rounded=0;orthogonalLoop=1;jettySize=auto;html=1;" parent="WIyWlLk6GJQsqaUBKTNV-1" source="TSAxxfIrnvSi1KXJe5UJ-4" target="TSAxxfIrnvSi1KXJe5UJ-9" edge="1">
          <mxGeometry relative="1" as="geometry" />
        </mxCell>
        <mxCell id="TSAxxfIrnvSi1KXJe5UJ-4" value="string[] input,&lt;br&gt;string[] output,&lt;br&gt;int i = 0,&lt;br&gt;int j = 0,&lt;br&gt;int n = 3" style="shape=parallelogram;perimeter=parallelogramPerimeter;whiteSpace=wrap;html=1;fixedSize=1;" parent="WIyWlLk6GJQsqaUBKTNV-1" vertex="1">
          <mxGeometry x="332.5" y="150" width="170" height="100" as="geometry" />
        </mxCell>
        <mxCell id="TSAxxfIrnvSi1KXJe5UJ-5" value="" style="edgeStyle=orthogonalEdgeStyle;rounded=0;orthogonalLoop=1;jettySize=auto;html=1;" parent="WIyWlLk6GJQsqaUBKTNV-1" source="TSAxxfIrnvSi1KXJe5UJ-9" target="TSAxxfIrnvSi1KXJe5UJ-11" edge="1">
          <mxGeometry relative="1" as="geometry" />
        </mxCell>
        <mxCell id="TSAxxfIrnvSi1KXJe5UJ-6" value="NO" style="edgeLabel;html=1;align=center;verticalAlign=middle;resizable=0;points=[];" parent="TSAxxfIrnvSi1KXJe5UJ-5" vertex="1" connectable="0">
          <mxGeometry x="-0.3268" relative="1" as="geometry">
            <mxPoint x="14" y="-15" as="offset" />
          </mxGeometry>
        </mxCell>
        <mxCell id="TSAxxfIrnvSi1KXJe5UJ-7" value="" style="edgeStyle=orthogonalEdgeStyle;rounded=0;orthogonalLoop=1;jettySize=auto;html=1;" parent="WIyWlLk6GJQsqaUBKTNV-1" source="TSAxxfIrnvSi1KXJe5UJ-9" target="TSAxxfIrnvSi1KXJe5UJ-15" edge="1">
          <mxGeometry relative="1" as="geometry" />
        </mxCell>
        <mxCell id="TSAxxfIrnvSi1KXJe5UJ-8" value="YES" style="edgeLabel;html=1;align=center;verticalAlign=middle;resizable=0;points=[];" parent="TSAxxfIrnvSi1KXJe5UJ-7" vertex="1" connectable="0">
          <mxGeometry x="-0.2" y="1" relative="1" as="geometry">
            <mxPoint x="-16" as="offset" />
          </mxGeometry>
        </mxCell>
        <mxCell id="TSAxxfIrnvSi1KXJe5UJ-9" value="i &amp;lt; &amp;nbsp;input.Length" style="rhombus;whiteSpace=wrap;html=1;" parent="WIyWlLk6GJQsqaUBKTNV-1" vertex="1">
          <mxGeometry x="332.5" y="320" width="170" height="120" as="geometry" />
        </mxCell>
        <mxCell id="TSAxxfIrnvSi1KXJe5UJ-10" value="" style="edgeStyle=orthogonalEdgeStyle;rounded=0;orthogonalLoop=1;jettySize=auto;html=1;" parent="WIyWlLk6GJQsqaUBKTNV-1" source="TSAxxfIrnvSi1KXJe5UJ-11" target="TSAxxfIrnvSi1KXJe5UJ-12" edge="1">
          <mxGeometry relative="1" as="geometry" />
        </mxCell>
        <mxCell id="TSAxxfIrnvSi1KXJe5UJ-11" value="output" style="shape=parallelogram;perimeter=parallelogramPerimeter;whiteSpace=wrap;html=1;fixedSize=1;" parent="WIyWlLk6GJQsqaUBKTNV-1" vertex="1">
          <mxGeometry x="562.5" y="350" width="120" height="60" as="geometry" />
        </mxCell>
        <mxCell id="TSAxxfIrnvSi1KXJe5UJ-12" value="&lt;b&gt;End&lt;/b&gt;" style="rounded=1;whiteSpace=wrap;html=1;" parent="WIyWlLk6GJQsqaUBKTNV-1" vertex="1">
          <mxGeometry x="562.5" y="460" width="120" height="60" as="geometry" />
        </mxCell>
        <mxCell id="TSAxxfIrnvSi1KXJe5UJ-13" value="" style="edgeStyle=orthogonalEdgeStyle;rounded=0;orthogonalLoop=1;jettySize=auto;html=1;" parent="WIyWlLk6GJQsqaUBKTNV-1" source="TSAxxfIrnvSi1KXJe5UJ-15" target="TSAxxfIrnvSi1KXJe5UJ-16" edge="1">
          <mxGeometry relative="1" as="geometry" />
        </mxCell>
        <mxCell id="TSAxxfIrnvSi1KXJe5UJ-14" value="" style="edgeStyle=orthogonalEdgeStyle;rounded=0;orthogonalLoop=1;jettySize=auto;html=1;" parent="WIyWlLk6GJQsqaUBKTNV-1" source="TSAxxfIrnvSi1KXJe5UJ-15" target="TSAxxfIrnvSi1KXJe5UJ-17" edge="1">
          <mxGeometry relative="1" as="geometry" />
        </mxCell>
        <mxCell id="TSAxxfIrnvSi1KXJe5UJ-15" value="input[i].Length &amp;lt;= n" style="rhombus;whiteSpace=wrap;html=1;" parent="WIyWlLk6GJQsqaUBKTNV-1" vertex="1">
          <mxGeometry x="310" y="520" width="215" height="120" as="geometry" />
        </mxCell>
        <mxCell id="TSAxxfIrnvSi1KXJe5UJ-16" value="output[j] = input[i]&amp;nbsp;" style="whiteSpace=wrap;html=1;" parent="WIyWlLk6GJQsqaUBKTNV-1" vertex="1">
          <mxGeometry x="357.5" y="735" width="120" height="60" as="geometry" />
        </mxCell>
        <mxCell id="TSAxxfIrnvSi1KXJe5UJ-17" value="i++" style="whiteSpace=wrap;html=1;" parent="WIyWlLk6GJQsqaUBKTNV-1" vertex="1">
          <mxGeometry x="170" y="547.5" width="90" height="65" as="geometry" />
        </mxCell>
        <mxCell id="TSAxxfIrnvSi1KXJe5UJ-18" value="" style="edgeStyle=orthogonalEdgeStyle;rounded=0;orthogonalLoop=1;jettySize=auto;html=1;" parent="WIyWlLk6GJQsqaUBKTNV-1" source="TSAxxfIrnvSi1KXJe5UJ-19" target="TSAxxfIrnvSi1KXJe5UJ-17" edge="1">
          <mxGeometry relative="1" as="geometry" />
        </mxCell>
        <mxCell id="TSAxxfIrnvSi1KXJe5UJ-19" value="j++" style="rounded=0;whiteSpace=wrap;html=1;" parent="WIyWlLk6GJQsqaUBKTNV-1" vertex="1">
          <mxGeometry x="172.5" y="735" width="85" height="60" as="geometry" />
        </mxCell>
        <mxCell id="TSAxxfIrnvSi1KXJe5UJ-20" value="" style="endArrow=classic;html=1;rounded=0;exitX=0;exitY=0.5;exitDx=0;exitDy=0;entryX=1;entryY=0.5;entryDx=0;entryDy=0;" parent="WIyWlLk6GJQsqaUBKTNV-1" source="TSAxxfIrnvSi1KXJe5UJ-16" target="TSAxxfIrnvSi1KXJe5UJ-19" edge="1">
          <mxGeometry width="50" height="50" relative="1" as="geometry">
            <mxPoint x="372.5" y="630" as="sourcePoint" />
            <mxPoint x="422.5" y="580" as="targetPoint" />
          </mxGeometry>
        </mxCell>
        <mxCell id="TSAxxfIrnvSi1KXJe5UJ-21" value="YES" style="edgeLabel;html=1;align=center;verticalAlign=middle;resizable=0;points=[];" parent="WIyWlLk6GJQsqaUBKTNV-1" vertex="1" connectable="0">
          <mxGeometry x="402.5" y="680" as="geometry" />
        </mxCell>
        <mxCell id="TSAxxfIrnvSi1KXJe5UJ-22" value="NO" style="edgeLabel;html=1;align=center;verticalAlign=middle;resizable=0;points=[];" parent="WIyWlLk6GJQsqaUBKTNV-1" vertex="1" connectable="0">
          <mxGeometry x="310" y="440" as="geometry">
            <mxPoint x="-25" y="115" as="offset" />
          </mxGeometry>
        </mxCell>
      </root>
    </mxGraphModel>
  </diagram>
</mxfile>
